<svg id="svg" version="1.1" xmlns="http://www.w3.org/2000/svg" xmlns:xlink="http://www.w3.org/1999/xlink" width="40" height="40" viewBox="0, 0, 400,518.5185185185185"><g id="svgg"><path id="path0" d="M355.050 76.719 C 354.942 76.895,355.018 77.300,355.220 77.619 C 355.495 78.053,355.589 78.068,355.594 77.676 C 355.597 77.388,355.778 77.263,355.995 77.397 C 356.222 77.537,356.289 77.377,356.153 77.021 C 355.895 76.350,355.367 76.206,355.050 76.719 M107.443 122.233 C 107.309 122.581,107.200 172.725,107.200 233.665 L 107.200 344.465 111.023 348.233 C 113.125 350.305,114.988 352.000,115.162 352.000 C 115.335 352.000,115.854 352.326,116.313 352.725 C 116.773 353.124,117.638 353.799,118.236 354.225 C 118.833 354.651,119.696 355.360,120.154 355.800 C 120.611 356.240,121.285 356.780,121.651 357.000 C 123.423 358.065,127.015 360.620,127.137 360.902 C 127.212 361.077,127.842 361.492,128.537 361.824 C 129.231 362.156,130.520 362.870,131.400 363.409 C 132.280 363.949,133.481 364.585,134.068 364.823 C 134.655 365.061,135.228 365.496,135.341 365.790 C 135.454 366.084,136.110 366.449,136.800 366.600 C 137.490 366.751,138.150 367.127,138.268 367.433 C 138.386 367.740,139.165 368.175,140.000 368.400 C 140.835 368.625,141.621 369.077,141.746 369.404 C 141.874 369.736,142.472 370.000,143.099 370.000 C 143.727 370.000,144.524 370.352,144.907 370.800 C 145.319 371.281,146.087 371.600,146.833 371.600 C 147.515 371.600,148.531 371.960,149.091 372.400 C 149.650 372.840,150.419 373.200,150.800 373.200 C 151.181 373.200,151.950 373.560,152.509 374.000 C 153.081 374.450,154.132 374.800,154.909 374.800 C 155.686 374.800,156.738 375.150,157.309 375.600 C 157.869 376.040,158.928 376.401,159.663 376.401 C 160.398 376.402,161.542 376.733,162.204 377.137 C 162.866 377.541,164.387 378.001,165.583 378.160 C 166.780 378.319,168.218 378.693,168.779 378.992 C 169.341 379.292,171.311 379.730,173.157 379.966 C 175.003 380.203,176.776 380.614,177.097 380.880 C 177.439 381.164,179.772 381.479,182.740 381.641 C 185.523 381.793,188.842 382.221,190.116 382.592 C 192.978 383.425,209.571 383.360,211.054 382.511 C 211.523 382.242,214.556 381.844,217.793 381.627 C 221.390 381.386,223.915 381.037,224.286 380.728 C 224.621 380.451,226.268 380.008,227.947 379.744 C 229.626 379.480,231.720 378.987,232.600 378.650 C 233.480 378.312,234.830 378.021,235.600 378.005 C 236.370 377.988,237.332 377.723,237.737 377.416 C 238.142 377.109,239.222 376.738,240.137 376.590 C 241.052 376.443,242.179 376.084,242.642 375.791 C 243.104 375.498,244.184 375.129,245.042 374.971 C 245.899 374.813,247.029 374.350,247.554 373.942 C 248.079 373.534,249.086 373.200,249.792 373.200 C 250.568 373.200,251.362 372.884,251.800 372.400 C 252.198 371.960,253.008 371.600,253.600 371.600 C 254.192 371.600,255.002 371.240,255.400 370.800 C 255.798 370.360,256.473 370.000,256.899 370.000 C 257.325 370.000,258.131 369.640,258.691 369.200 C 259.250 368.760,260.016 368.400,260.392 368.400 C 260.768 368.400,261.402 368.040,261.800 367.600 C 262.198 367.160,262.918 366.800,263.400 366.800 C 263.882 366.800,264.602 366.440,265.000 366.000 C 265.398 365.560,266.049 365.200,266.446 365.200 C 266.844 365.200,267.526 364.816,267.963 364.348 C 268.802 363.447,269.792 362.805,271.863 361.821 C 272.558 361.490,273.188 361.080,273.263 360.910 C 273.444 360.500,276.550 358.400,276.976 358.400 C 277.159 358.400,277.717 357.995,278.216 357.500 C 278.716 357.005,279.367 356.420,279.663 356.200 C 279.959 355.980,280.864 355.305,281.674 354.700 C 282.484 354.095,283.247 353.600,283.370 353.600 C 283.493 353.600,284.630 352.619,285.897 351.421 C 287.164 350.223,289.370 348.162,290.800 346.842 L 293.400 344.442 293.503 233.521 C 293.600 129.521,293.565 122.569,292.927 122.100 C 291.963 121.391,252.788 121.372,252.080 122.080 C 251.709 122.451,251.600 145.258,251.600 222.300 C 251.600 328.937,251.680 324.400,249.804 324.400 C 249.487 324.400,249.031 324.769,248.790 325.219 C 248.549 325.670,247.957 326.209,247.476 326.418 C 246.564 326.814,245.956 327.168,243.578 328.690 C 242.797 329.191,241.925 329.600,241.642 329.600 C 241.358 329.600,240.669 329.960,240.109 330.400 C 239.550 330.840,238.830 331.200,238.509 331.200 C 238.189 331.200,237.469 331.560,236.909 332.000 C 236.350 332.440,235.540 332.800,235.109 332.800 C 234.679 332.800,233.869 333.160,233.309 333.600 C 232.750 334.040,231.909 334.400,231.440 334.400 C 230.972 334.400,229.961 334.733,229.194 335.139 C 228.427 335.546,226.995 336.004,226.010 336.158 C 225.026 336.312,223.946 336.676,223.610 336.966 C 223.275 337.257,221.953 337.596,220.672 337.721 C 219.392 337.846,218.080 338.167,217.758 338.435 C 217.410 338.724,215.012 339.047,211.885 339.228 C 208.978 339.396,206.093 339.728,205.474 339.967 C 204.018 340.527,196.389 340.529,194.926 339.969 C 194.307 339.732,191.820 339.446,189.400 339.333 C 186.649 339.205,184.138 338.842,182.698 338.364 C 181.433 337.944,179.705 337.600,178.860 337.600 C 177.897 337.600,176.978 337.301,176.400 336.800 C 175.793 336.274,174.903 336.000,173.801 336.000 C 172.632 336.000,171.905 335.758,171.400 335.200 C 170.924 334.674,170.168 334.400,169.192 334.400 C 168.349 334.400,167.296 334.077,166.754 333.652 C 166.229 333.241,165.215 332.776,164.500 332.620 C 163.785 332.464,163.200 332.185,163.200 331.999 C 163.200 331.814,162.525 331.445,161.700 331.179 C 160.875 330.913,159.973 330.515,159.695 330.295 C 159.084 329.810,157.069 328.691,155.300 327.855 C 154.585 327.517,154.000 327.071,154.000 326.864 C 154.000 326.656,153.595 326.374,153.100 326.237 C 152.605 326.100,151.612 325.479,150.892 324.858 L 149.585 323.729 149.596 223.307 C 149.602 168.075,149.497 122.596,149.361 122.242 C 148.987 121.268,107.817 121.259,107.443 122.233 M343.300 440.900 C 343.537 442.086,344.800 442.339,344.800 441.200 C 344.800 440.667,344.533 440.400,344.000 440.400 C 343.560 440.400,343.245 440.625,343.300 440.900 " stroke="none" fill="#faf9fc" fill-rule="evenodd"></path><path id="path1" d="M47.200 58.885 C 47.200 59.078,46.974 59.183,46.698 59.120 C 46.120 58.987,44.143 60.830,44.314 61.342 C 44.377 61.530,44.265 61.890,44.067 62.142 C 43.868 62.394,43.684 66.875,43.657 72.100 L 43.609 81.600 44.613 81.600 C 46.066 81.600,46.588 82.970,45.912 85.005 C 45.498 86.249,45.185 86.593,44.491 86.568 L 43.600 86.536 43.600 252.184 L 43.600 417.832 44.698 417.816 C 46.163 417.795,46.960 420.318,45.869 421.524 C 44.831 422.670,44.982 424.400,46.120 424.400 C 47.601 424.400,48.056 425.132,47.383 426.433 C 46.824 427.515,46.839 427.551,47.903 427.674 C 49.093 427.811,49.658 429.302,48.834 430.126 C 48.148 430.812,48.324 431.104,49.309 430.915 C 50.473 430.693,52.942 433.530,52.371 434.433 C 51.700 435.493,51.937 436.800,52.800 436.800 C 53.333 436.800,53.600 437.067,53.600 437.600 C 53.600 438.514,54.741 438.674,56.095 437.949 C 56.757 437.595,57.029 437.623,57.368 438.084 C 57.606 438.406,58.205 438.885,58.700 439.149 C 59.260 439.447,59.600 440.000,59.600 440.614 C 59.600 441.723,59.721 441.777,60.852 441.172 C 61.877 440.623,62.800 441.323,62.800 442.649 C 62.800 443.172,62.980 443.600,63.200 443.600 C 63.420 443.600,63.600 443.423,63.600 443.208 C 63.600 441.753,67.058 442.592,67.272 444.099 C 67.432 445.224,69.583 445.585,70.383 444.620 C 71.171 443.671,330.429 443.671,331.217 444.620 C 332.039 445.611,334.122 445.222,334.205 444.063 C 334.323 442.411,336.949 441.730,338.051 443.065 C 338.543 443.660,338.621 443.587,338.800 442.365 C 339.025 440.827,340.291 440.304,341.184 441.381 C 341.931 442.280,342.400 442.141,342.400 441.019 C 342.400 439.737,351.129 430.800,352.382 430.800 C 353.169 430.800,353.182 430.744,352.600 429.856 C 351.743 428.548,352.208 427.600,353.705 427.600 C 354.890 427.600,354.904 427.578,354.215 426.816 C 353.113 425.599,353.677 424.000,355.208 424.000 C 356.460 424.000,356.921 422.681,355.993 421.753 C 355.429 421.189,355.432 84.008,355.996 83.444 C 356.863 82.577,356.471 80.800,355.414 80.800 C 353.781 80.800,352.967 78.291,354.200 77.057 C 355.030 76.227,354.954 76.000,353.847 76.000 C 352.358 76.000,350.565 73.435,351.152 72.145 C 351.916 70.469,351.708 70.107,349.818 69.824 C 347.368 69.456,345.344 67.432,344.976 64.982 C 344.683 63.025,344.014 62.701,342.708 63.883 C 341.742 64.757,340.653 64.164,340.474 62.667 C 340.352 61.648,340.318 61.635,339.372 62.255 C 338.184 63.034,337.200 62.443,337.200 60.951 C 337.200 59.846,336.973 59.770,336.143 60.600 C 334.813 61.930,332.400 61.104,332.400 59.320 L 332.400 58.400 200.668 58.400 L 68.936 58.400 68.968 59.276 C 69.050 61.534,65.542 61.708,65.273 59.460 L 65.147 58.400 61.150 58.400 C 58.595 58.400,57.242 58.544,57.399 58.799 C 57.562 59.062,57.302 59.067,56.634 58.813 C 55.388 58.339,47.200 58.402,47.200 58.885 M51.818 59.972 C 51.667 60.214,51.396 60.321,51.214 60.209 C 51.033 60.096,50.776 60.285,50.645 60.628 C 50.513 60.970,50.243 61.150,50.045 61.028 C 49.710 60.821,49.114 61.726,49.035 62.562 C 48.987 63.063,47.824 63.187,47.154 62.763 C 46.754 62.510,46.740 62.411,47.100 62.406 C 47.375 62.403,47.600 62.124,47.600 61.787 C 47.600 61.451,47.915 61.064,48.300 60.929 C 48.685 60.794,49.298 60.314,49.662 59.862 C 50.251 59.131,50.404 59.104,51.037 59.620 C 51.684 60.146,51.722 60.126,51.451 59.400 C 51.223 58.790,51.264 58.710,51.621 59.065 C 51.879 59.321,51.968 59.729,51.818 59.972 M55.467 59.417 C 55.467 59.785,55.238 59.947,54.901 59.817 C 54.589 59.698,54.214 59.587,54.067 59.572 C 53.920 59.556,54.160 59.389,54.600 59.200 C 55.040 59.011,55.415 58.844,55.433 58.828 C 55.452 58.813,55.467 59.078,55.467 59.417 M48.288 60.186 C 48.460 60.374,48.387 60.406,48.128 60.258 C 47.668 59.994,47.018 60.634,47.006 61.362 C 47.003 61.561,46.666 61.773,46.258 61.833 C 45.575 61.933,45.584 61.869,46.361 61.041 C 46.827 60.546,47.099 60.033,46.967 59.900 C 46.835 59.768,47.008 59.701,47.352 59.752 C 47.696 59.802,48.117 59.998,48.288 60.186 M63.928 61.269 C 63.781 62.266,63.245 62.542,62.442 62.034 C 61.661 61.540,62.201 60.400,63.215 60.400 C 63.850 60.400,64.024 60.612,63.928 61.269 M60.725 62.906 C 60.884 63.732,59.729 64.289,59.120 63.680 C 58.511 63.071,59.068 61.916,59.894 62.075 C 60.277 62.149,60.651 62.523,60.725 62.906 M57.686 64.300 C 57.778 64.749,56.788 66.038,54.920 67.900 C 51.826 70.983,50.400 71.582,50.400 69.800 C 50.400 69.250,50.553 68.800,50.741 68.800 C 51.231 68.800,53.423 66.638,53.722 65.859 C 53.861 65.497,54.238 65.200,54.560 65.200 C 54.883 65.200,55.260 64.840,55.400 64.400 C 55.724 63.380,57.480 63.303,57.686 64.300 M49.225 74.047 C 49.771 75.067,48.857 76.261,47.831 75.867 C 47.082 75.580,46.983 73.754,47.700 73.465 C 48.577 73.111,48.762 73.182,49.225 74.047 M47.578 77.558 C 47.878 78.120,47.831 78.442,47.397 78.803 C 46.547 79.508,45.600 78.986,45.600 77.813 C 45.600 76.572,46.957 76.398,47.578 77.558 M150.010 121.026 C 150.260 121.683,150.400 158.223,150.400 222.559 L 150.400 323.065 152.500 324.402 C 153.655 325.137,154.922 326.067,155.316 326.469 C 155.709 326.871,156.356 327.200,156.754 327.200 C 157.151 327.200,157.802 327.560,158.200 328.000 C 158.598 328.440,159.232 328.800,159.608 328.800 C 159.984 328.800,160.750 329.160,161.309 329.600 C 161.869 330.040,162.589 330.400,162.909 330.400 C 163.230 330.400,163.950 330.760,164.509 331.200 C 165.069 331.640,165.905 332.000,166.367 332.000 C 166.829 332.000,167.516 332.360,167.893 332.800 C 168.345 333.328,169.073 333.600,170.035 333.600 C 170.886 333.600,171.915 333.933,172.509 334.400 C 173.137 334.894,174.132 335.200,175.109 335.200 C 176.086 335.200,177.081 335.506,177.709 336.000 C 178.359 336.511,179.353 336.806,180.463 336.817 C 182.976 336.843,185.647 337.428,186.022 338.036 C 186.574 338.929,213.289 338.805,214.284 337.905 C 214.787 337.450,216.119 337.143,218.413 336.952 C 220.628 336.768,221.947 336.472,222.224 336.095 C 222.458 335.778,223.538 335.421,224.624 335.301 C 225.711 335.182,227.029 334.750,227.554 334.342 C 228.084 333.930,229.155 333.600,229.965 333.600 C 230.927 333.600,231.655 333.328,232.107 332.800 C 232.484 332.360,233.220 332.000,233.742 332.000 C 234.265 332.000,235.150 331.640,235.709 331.200 C 236.269 330.760,236.989 330.400,237.309 330.400 C 237.630 330.400,238.350 330.040,238.909 329.600 C 239.469 329.160,240.189 328.800,240.509 328.800 C 240.830 328.800,241.550 328.440,242.109 328.000 C 242.669 327.560,243.415 327.200,243.767 327.200 C 244.119 327.200,244.716 326.840,245.093 326.400 C 245.470 325.960,246.071 325.600,246.430 325.600 C 246.788 325.600,247.693 325.015,248.441 324.301 L 249.800 323.002 250.000 221.886 C 250.177 132.587,250.270 120.726,250.800 120.392 C 251.993 119.637,293.816 119.896,294.451 120.661 C 294.913 121.219,295.000 138.940,295.000 233.046 L 295.000 344.769 293.064 346.735 C 291.999 347.816,290.409 349.218,289.530 349.851 C 288.652 350.483,287.472 351.405,286.908 351.900 C 286.344 352.395,285.729 352.800,285.542 352.800 C 285.354 352.800,285.200 353.070,285.200 353.400 C 285.200 353.730,285.035 354.000,284.834 354.000 C 284.488 354.000,283.698 354.615,281.366 356.700 C 280.812 357.195,280.117 357.600,279.822 357.600 C 279.526 357.600,278.706 358.140,277.999 358.801 C 276.559 360.147,273.330 362.400,272.842 362.400 C 272.667 362.400,272.198 362.760,271.800 363.200 C 271.402 363.640,270.743 364.000,270.335 364.000 C 269.928 364.000,269.203 364.450,268.725 365.000 C 268.247 365.550,267.692 366.000,267.491 366.000 C 267.290 366.000,266.669 366.360,266.109 366.800 C 265.550 367.240,264.776 367.600,264.389 367.600 C 264.002 367.600,263.586 367.860,263.464 368.178 C 263.342 368.496,262.588 368.879,261.789 369.028 C 260.990 369.178,260.243 369.543,260.129 369.840 C 260.016 370.136,259.296 370.496,258.529 370.640 C 257.763 370.783,257.048 371.130,256.941 371.410 C 256.833 371.690,255.973 372.113,255.029 372.351 C 254.084 372.589,253.085 373.057,252.807 373.392 C 252.521 373.737,251.658 374.000,250.813 374.000 C 249.832 374.000,249.077 374.273,248.600 374.800 C 248.202 375.240,247.499 375.601,247.038 375.603 C 246.577 375.604,245.660 375.963,245.000 376.400 C 244.340 376.837,243.281 377.196,242.647 377.197 C 242.013 377.199,240.933 377.544,240.247 377.964 C 239.561 378.384,237.920 378.855,236.600 379.012 C 235.280 379.168,233.926 379.535,233.591 379.827 C 233.256 380.120,231.726 380.482,230.191 380.632 C 228.656 380.782,227.095 381.170,226.722 381.494 C 226.256 381.899,224.695 382.153,221.731 382.304 C 219.102 382.438,217.224 382.718,216.921 383.022 C 215.664 384.279,184.733 384.362,183.297 383.112 C 182.818 382.696,181.301 382.431,178.451 382.267 C 175.748 382.111,173.975 381.814,173.365 381.414 C 172.850 381.076,171.837 380.796,171.114 380.790 C 169.378 380.778,166.745 380.154,166.441 379.683 C 166.309 379.477,165.154 379.180,163.875 379.022 C 162.554 378.860,161.463 378.510,161.349 378.211 C 161.238 377.921,160.191 377.566,159.014 377.419 C 157.672 377.251,156.621 376.865,156.179 376.376 C 155.696 375.843,154.951 375.600,153.800 375.600 C 152.632 375.600,151.905 375.358,151.400 374.800 C 151.002 374.360,150.252 374.000,149.734 374.000 C 149.216 374.000,148.484 373.640,148.107 373.200 C 147.655 372.672,146.927 372.400,145.965 372.400 C 145.114 372.400,144.085 372.067,143.491 371.600 C 142.931 371.160,142.211 370.800,141.891 370.800 C 141.570 370.800,140.850 370.440,140.291 370.000 C 139.731 369.560,139.073 369.200,138.828 369.200 C 138.260 369.200,135.097 367.160,134.698 366.535 C 134.531 366.275,133.875 365.948,133.239 365.809 C 132.603 365.669,131.766 365.205,131.379 364.777 C 130.993 364.350,130.381 364.000,130.019 364.000 C 129.308 364.000,128.006 363.125,126.598 361.700 C 126.109 361.205,125.412 360.800,125.050 360.800 C 124.688 360.800,124.084 360.440,123.707 360.000 C 123.330 359.560,122.861 359.200,122.664 359.200 C 122.467 359.200,121.608 358.480,120.754 357.600 C 119.900 356.720,118.946 356.000,118.634 356.000 C 118.044 356.000,117.196 355.344,114.115 352.500 C 113.102 351.565,112.142 350.800,111.983 350.800 C 111.824 350.800,111.599 350.440,111.484 350.000 C 111.369 349.560,111.000 349.200,110.664 349.200 C 110.329 349.200,109.940 348.840,109.800 348.400 C 109.660 347.960,109.300 347.600,109.000 347.600 C 108.700 347.600,108.340 347.240,108.200 346.800 C 108.060 346.360,107.692 346.000,107.381 346.000 C 107.070 346.000,106.704 345.557,106.568 345.016 C 106.433 344.475,106.069 343.823,105.761 343.567 C 104.934 342.881,104.915 122.608,105.742 122.120 C 106.039 121.944,106.496 121.395,106.756 120.900 L 107.228 120.000 128.424 120.000 L 149.620 120.000 150.010 121.026 " stroke="none" fill="#7464f4" fill-rule="evenodd"></path><path id="path2" d="M65.337 59.360 C 65.425 60.982,66.495 61.575,67.903 60.785 C 69.117 60.104,69.381 58.684,68.331 58.482 C 67.839 58.387,67.717 58.562,67.869 59.142 C 68.003 59.656,67.810 60.073,67.316 60.338 C 66.353 60.854,65.736 60.472,65.477 59.200 C 65.299 58.329,65.281 58.350,65.337 59.360 M332.400 59.320 C 332.400 61.011,334.466 61.842,336.000 60.768 C 336.470 60.439,336.405 60.403,335.700 60.601 C 334.275 61.002,333.200 60.474,333.200 59.373 C 333.200 58.838,333.020 58.400,332.800 58.400 C 332.580 58.400,332.400 58.814,332.400 59.320 M51.451 59.400 C 51.711 60.095,51.666 60.132,51.109 59.680 C 50.573 59.244,50.350 59.282,49.735 59.916 C 49.331 60.332,48.685 60.785,48.300 60.923 C 47.915 61.062,47.600 61.451,47.600 61.787 C 47.600 62.124,47.375 62.403,47.100 62.406 C 46.740 62.411,46.754 62.510,47.154 62.763 C 47.824 63.187,48.987 63.063,49.035 62.562 C 49.114 61.726,49.710 60.821,50.045 61.028 C 50.243 61.150,50.513 60.970,50.645 60.628 C 50.776 60.285,51.033 60.096,51.214 60.209 C 51.769 60.552,52.122 59.562,51.621 59.065 C 51.264 58.710,51.223 58.790,51.451 59.400 M54.600 59.200 C 54.160 59.389,53.920 59.556,54.067 59.572 C 54.214 59.587,54.589 59.698,54.901 59.817 C 55.238 59.947,55.467 59.785,55.467 59.417 C 55.467 59.078,55.452 58.813,55.433 58.828 C 55.415 58.844,55.040 59.011,54.600 59.200 M46.627 60.772 C 45.702 61.737,45.636 61.924,46.252 61.833 C 46.664 61.773,47.003 61.561,47.006 61.362 C 47.018 60.650,47.663 59.992,48.089 60.255 C 48.349 60.415,48.409 60.337,48.238 60.062 C 47.861 59.452,47.914 59.428,46.627 60.772 M337.200 60.927 C 337.200 62.292,338.115 62.981,339.174 62.414 C 340.270 61.827,340.216 61.670,339.000 61.902 C 338.195 62.056,338.000 61.932,338.000 61.270 C 338.000 60.818,337.820 60.336,337.600 60.200 C 337.375 60.061,337.200 60.380,337.200 60.927 M62.129 61.040 C 61.876 61.700,62.691 62.483,63.400 62.262 C 63.620 62.194,63.858 61.746,63.928 61.269 C 64.083 60.214,62.522 60.016,62.129 61.040 M340.465 62.560 C 340.634 64.011,341.753 64.825,342.489 64.032 C 342.911 63.578,342.879 63.525,342.306 63.726 C 341.704 63.938,340.407 62.540,340.766 62.067 C 340.821 61.993,340.746 61.813,340.598 61.667 C 340.450 61.520,340.390 61.922,340.465 62.560 M58.946 62.597 C 58.807 62.958,58.886 63.446,59.120 63.680 C 59.729 64.289,60.884 63.732,60.725 62.906 C 60.548 61.985,59.266 61.763,58.946 62.597 M55.400 64.400 C 55.260 64.840,54.883 65.200,54.560 65.200 C 54.238 65.200,53.861 65.497,53.722 65.859 C 53.423 66.638,51.231 68.800,50.741 68.800 C 50.553 68.800,50.400 69.250,50.400 69.800 C 50.400 71.582,51.826 70.983,54.920 67.900 C 56.788 66.038,57.778 64.749,57.686 64.300 C 57.480 63.303,55.724 63.380,55.400 64.400 M57.200 64.576 C 57.200 65.358,56.425 65.785,55.920 65.280 C 55.694 65.054,55.631 64.674,55.778 64.435 C 56.171 63.800,57.200 63.903,57.200 64.576 M345.246 65.860 C 345.185 66.990,347.810 69.615,348.940 69.554 C 349.751 69.510,349.754 69.496,349.000 69.307 C 348.002 69.058,345.749 66.784,345.488 65.762 C 345.315 65.085,345.288 65.096,345.246 65.860 M55.432 66.748 C 55.290 66.977,54.906 67.062,54.577 66.936 C 54.108 66.756,54.081 66.584,54.453 66.136 C 54.982 65.498,55.864 66.049,55.432 66.748 M51.983 70.177 C 51.739 70.421,51.420 70.380,51.103 70.063 C 50.708 69.668,50.726 69.493,51.193 69.204 C 51.895 68.770,52.565 69.595,51.983 70.177 M351.002 72.394 C 350.614 73.615,352.609 76.016,353.947 75.940 L 355.000 75.880 353.876 75.711 C 352.516 75.507,352.121 74.668,352.794 73.411 C 353.069 72.897,353.173 72.279,353.024 72.038 C 352.576 71.314,351.272 71.544,351.002 72.394 M47.700 73.465 C 46.983 73.754,47.082 75.580,47.831 75.867 C 48.857 76.261,49.771 75.067,49.225 74.047 C 48.762 73.182,48.577 73.111,47.700 73.465 M45.600 77.813 C 45.600 78.986,46.547 79.508,47.397 78.803 C 48.170 78.161,47.483 76.800,46.386 76.800 C 45.812 76.800,45.600 77.073,45.600 77.813 M353.757 77.829 C 353.376 79.348,354.175 80.800,355.391 80.800 C 356.619 80.800,356.751 79.797,355.536 79.705 C 354.442 79.623,353.932 78.855,354.204 77.700 C 354.320 77.205,354.325 76.800,354.215 76.800 C 354.105 76.800,353.899 77.263,353.757 77.829 M47.200 78.024 C 47.200 78.231,46.936 78.400,46.613 78.400 C 46.256 78.400,46.115 78.165,46.254 77.802 C 46.491 77.187,47.200 77.353,47.200 78.024 M44.400 81.958 C 45.781 82.342,45.848 84.217,44.480 84.166 C 43.686 84.137,43.576 84.302,43.680 85.366 C 43.866 87.279,45.247 87.056,45.919 85.005 C 46.613 82.886,46.067 81.584,44.509 81.640 L 43.400 81.680 44.400 81.958 M355.820 83.568 C 355.601 83.921,355.475 421.210,355.693 421.426 C 355.752 421.483,355.835 420.556,355.877 419.364 C 355.967 416.842,356.167 416.400,357.224 416.400 C 357.991 416.400,358.000 414.467,358.000 252.000 C 358.000 89.186,357.992 87.600,357.219 87.600 C 356.234 87.600,355.418 85.087,356.031 83.943 C 356.429 83.199,356.248 82.876,355.820 83.568 M106.756 120.900 C 106.496 121.395,106.039 121.944,105.742 122.120 C 104.915 122.608,104.934 342.881,105.761 343.567 C 106.069 343.823,106.433 344.475,106.568 345.016 C 106.704 345.557,106.981 346.000,107.184 346.000 C 107.387 346.000,107.294 345.505,106.979 344.900 C 106.070 343.158,106.113 122.587,107.023 121.289 L 107.645 120.400 128.409 120.400 C 148.527 120.400,149.185 120.424,149.586 121.174 C 149.868 121.701,150.000 154.039,150.000 222.782 L 150.000 323.617 151.000 324.073 C 151.550 324.323,152.000 324.667,152.000 324.837 C 152.000 325.007,152.405 325.273,152.900 325.428 C 153.395 325.583,154.309 326.135,154.931 326.655 C 155.553 327.175,156.296 327.600,156.582 327.600 C 156.868 327.600,157.326 327.870,157.600 328.200 C 157.874 328.530,158.284 328.800,158.511 328.800 C 158.738 328.800,158.598 328.440,158.200 328.000 C 157.802 327.560,157.151 327.200,156.754 327.200 C 156.356 327.200,155.709 326.871,155.316 326.469 C 154.922 326.067,153.655 325.137,152.500 324.402 L 150.400 323.065 150.400 222.559 C 150.400 158.223,150.260 121.683,150.010 121.026 L 149.620 120.000 128.424 120.000 L 107.228 120.000 106.756 120.900 M250.800 120.392 C 250.270 120.726,250.177 132.587,250.000 221.886 L 249.800 323.002 248.441 324.301 C 247.693 325.015,247.279 325.600,247.521 325.600 C 247.762 325.600,248.104 325.356,248.280 325.058 C 248.456 324.761,249.005 324.304,249.500 324.044 L 250.400 323.572 250.400 222.614 C 250.400 131.130,250.459 121.598,251.032 121.025 C 251.595 120.462,253.972 120.404,272.720 120.496 L 293.776 120.600 294.284 121.600 C 294.691 122.402,294.772 144.553,294.696 233.481 L 294.600 344.361 293.000 346.025 C 292.120 346.940,289.987 348.839,288.260 350.244 C 286.533 351.650,285.292 352.800,285.502 352.800 C 285.711 352.800,286.344 352.395,286.908 351.900 C 287.472 351.405,288.652 350.483,289.530 349.851 C 290.409 349.218,291.999 347.816,293.064 346.735 L 295.000 344.769 295.000 233.046 C 295.000 138.940,294.913 121.219,294.451 120.661 C 293.816 119.896,251.993 119.637,250.800 120.392 M245.093 326.400 C 244.716 326.840,244.513 327.200,244.641 327.200 C 244.769 327.200,245.331 326.840,245.891 326.400 C 246.496 325.924,246.679 325.600,246.343 325.600 C 246.032 325.600,245.470 325.960,245.093 326.400 M242.056 328.013 C 240.813 329.048,241.774 329.036,243.091 328.000 C 243.658 327.554,243.863 327.206,243.554 327.213 C 243.249 327.221,242.575 327.581,242.056 328.013 M160.200 329.600 C 160.860 330.037,161.580 330.390,161.800 330.384 C 162.477 330.366,160.354 328.800,159.656 328.803 C 159.229 328.804,159.419 329.083,160.200 329.600 M238.856 329.613 C 238.336 330.046,237.645 330.400,237.319 330.400 C 236.993 330.400,236.269 330.760,235.709 331.200 C 235.032 331.732,234.894 332.000,235.297 332.000 C 235.630 332.000,236.111 331.748,236.367 331.439 C 236.623 331.131,237.306 330.760,237.885 330.614 C 239.107 330.308,241.183 328.793,240.354 328.813 C 240.049 328.821,239.375 329.181,238.856 329.613 M163.059 330.797 C 163.532 330.988,164.037 331.337,164.183 331.572 C 164.328 331.807,164.662 331.994,164.924 331.987 C 165.186 331.979,164.975 331.619,164.456 331.187 C 163.936 330.754,163.216 330.411,162.856 330.425 C 162.385 330.444,162.443 330.549,163.059 330.797 M166.652 332.576 C 167.341 332.876,168.026 333.319,168.176 333.560 C 168.325 333.802,169.083 334.000,169.861 334.000 C 170.668 334.000,171.710 334.343,172.291 334.800 C 172.868 335.254,173.914 335.600,174.707 335.600 C 175.476 335.600,176.667 335.938,177.353 336.351 C 178.087 336.793,179.678 337.183,181.218 337.299 C 182.658 337.407,184.416 337.795,185.125 338.161 C 186.141 338.687,187.281 338.800,190.507 338.698 L 194.600 338.569 190.333 338.484 C 187.671 338.432,186.012 338.235,185.921 337.962 C 185.747 337.441,182.891 336.842,180.463 336.817 C 179.353 336.806,178.359 336.511,177.709 336.000 C 177.081 335.506,176.086 335.200,175.109 335.200 C 174.132 335.200,173.137 334.894,172.509 334.400 C 171.915 333.933,170.886 333.600,170.035 333.600 C 169.073 333.600,168.345 333.328,167.893 332.800 C 167.516 332.360,166.801 332.007,166.304 332.016 C 165.526 332.029,165.575 332.107,166.652 332.576 M232.107 332.800 C 231.655 333.328,230.927 333.600,229.965 333.600 C 229.155 333.600,228.084 333.930,227.554 334.342 C 227.029 334.750,225.711 335.182,224.624 335.301 C 223.538 335.421,222.458 335.778,222.224 336.095 C 221.947 336.472,220.628 336.768,218.413 336.952 C 216.361 337.122,214.772 337.463,214.382 337.817 C 213.923 338.231,212.589 338.424,209.769 338.483 L 205.800 338.566 209.469 338.698 C 212.359 338.801,213.653 338.656,215.557 338.015 C 216.887 337.567,218.840 337.200,219.898 337.200 C 221.051 337.200,222.206 336.931,222.779 336.529 C 223.306 336.161,224.629 335.718,225.719 335.546 C 226.809 335.373,228.008 334.955,228.382 334.616 C 228.757 334.277,229.610 334.000,230.278 334.000 C 230.946 334.000,231.921 333.667,232.446 333.260 C 232.971 332.853,233.670 332.417,234.000 332.291 C 234.400 332.139,234.298 332.053,233.696 332.032 C 233.199 332.014,232.484 332.360,232.107 332.800 M197.282 339.096 C 198.758 339.173,201.278 339.173,202.882 339.097 C 204.487 339.021,203.280 338.958,200.200 338.958 C 197.120 338.957,195.807 339.019,197.282 339.096 M111.600 350.351 C 111.600 350.598,111.751 350.800,111.936 350.800 C 112.121 350.800,113.102 351.565,114.115 352.500 C 117.196 355.344,118.044 356.000,118.634 356.000 C 118.946 356.000,119.900 356.720,120.754 357.600 C 121.608 358.480,122.467 359.200,122.664 359.200 C 122.861 359.200,123.330 359.560,123.707 360.000 C 124.084 360.440,124.707 360.800,125.091 360.800 C 125.496 360.800,124.935 360.224,123.756 359.431 C 122.638 358.678,121.169 357.508,120.492 356.831 C 119.815 356.154,119.167 355.600,119.051 355.600 C 118.650 355.600,115.210 353.149,114.107 352.077 C 112.333 350.353,111.600 349.848,111.600 350.351 M282.446 355.226 C 281.049 356.312,279.740 357.200,279.537 357.200 C 279.335 357.200,278.420 357.920,277.504 358.800 C 276.588 359.680,275.629 360.400,275.373 360.400 C 274.809 360.400,272.687 362.020,272.931 362.264 C 273.167 362.500,276.417 360.278,277.999 358.801 C 278.706 358.140,279.526 357.600,279.822 357.600 C 280.117 357.600,280.809 357.195,281.360 356.700 C 282.754 355.447,284.094 354.386,284.788 353.984 C 285.112 353.797,285.289 353.556,285.181 353.448 C 285.074 353.340,283.843 354.141,282.446 355.226 M126.362 361.500 C 126.618 361.995,126.974 362.400,127.153 362.400 C 127.331 362.400,127.893 362.760,128.400 363.200 C 128.907 363.640,129.610 363.994,129.961 363.988 C 130.313 363.981,129.880 363.544,129.000 363.017 C 128.120 362.490,127.062 361.731,126.648 361.329 C 125.918 360.621,125.909 360.625,126.362 361.500 M270.856 363.213 C 270.228 363.736,270.107 364.000,270.494 364.000 C 270.814 364.000,271.402 363.640,271.800 363.200 C 272.727 362.176,272.090 362.185,270.856 363.213 M131.364 364.760 C 131.759 365.197,132.603 365.669,133.239 365.809 C 133.875 365.948,134.531 366.275,134.698 366.535 C 135.097 367.160,138.260 369.200,138.828 369.200 C 139.073 369.200,139.731 369.560,140.291 370.000 C 140.850 370.440,141.570 370.800,141.891 370.800 C 142.211 370.800,142.931 371.160,143.491 371.600 C 144.085 372.067,145.114 372.400,145.965 372.400 C 146.927 372.400,147.655 372.672,148.107 373.200 C 148.484 373.640,149.199 373.975,149.696 373.946 C 150.576 373.893,150.577 373.887,149.742 373.723 C 149.270 373.631,148.567 373.205,148.180 372.778 C 147.760 372.314,146.956 372.000,146.187 372.000 C 145.478 372.000,144.698 371.759,144.454 371.465 C 144.209 371.170,143.287 370.713,142.405 370.449 C 141.522 370.184,140.800 369.815,140.800 369.627 C 140.800 369.440,140.319 369.166,139.732 369.019 C 139.144 368.871,138.220 368.402,137.678 367.975 C 137.136 367.549,136.474 367.200,136.208 367.200 C 135.942 367.200,135.407 366.850,135.021 366.423 C 134.634 365.995,133.796 365.531,133.159 365.391 C 132.521 365.251,132.000 364.990,132.000 364.811 C 132.000 364.632,131.695 364.369,131.322 364.226 C 130.715 363.993,130.719 364.048,131.364 364.760 M268.548 364.591 C 268.423 364.916,266.998 365.818,265.381 366.596 C 263.764 367.374,262.331 368.188,262.197 368.405 C 262.063 368.622,261.677 368.800,261.339 368.800 C 261.002 368.800,260.269 369.160,259.709 369.600 C 259.150 370.040,258.381 370.400,258.000 370.400 C 257.619 370.400,256.879 370.733,256.354 371.139 C 255.829 371.545,254.860 372.009,254.200 372.170 C 253.540 372.331,252.730 372.703,252.400 372.998 C 252.070 373.292,251.260 373.611,250.600 373.707 C 249.479 373.869,249.495 373.884,250.851 373.940 C 251.724 373.976,252.503 373.758,252.807 373.392 C 253.085 373.057,254.084 372.589,255.029 372.351 C 255.973 372.113,256.833 371.690,256.941 371.410 C 257.048 371.130,257.763 370.783,258.529 370.640 C 259.296 370.496,260.016 370.136,260.129 369.840 C 260.243 369.543,260.990 369.178,261.789 369.028 C 262.588 368.879,263.342 368.496,263.464 368.178 C 263.586 367.860,264.002 367.600,264.389 367.600 C 264.776 367.600,265.550 367.240,266.109 366.800 C 266.669 366.360,267.290 366.000,267.491 366.000 C 267.692 366.000,268.247 365.550,268.725 365.000 C 269.203 364.450,269.410 364.000,269.185 364.000 C 268.959 364.000,268.673 364.266,268.548 364.591 M151.400 374.800 C 151.798 375.240,152.501 375.589,152.962 375.575 C 153.798 375.549,153.798 375.548,152.941 375.203 C 152.468 375.012,151.963 374.663,151.817 374.428 C 151.672 374.193,151.356 374.000,151.114 374.000 C 150.873 374.000,151.002 374.360,151.400 374.800 M248.420 374.576 C 248.157 374.893,247.550 375.228,247.071 375.322 C 246.225 375.486,246.224 375.493,247.038 375.546 C 247.499 375.575,248.202 375.240,248.600 374.800 C 248.998 374.360,249.228 374.000,249.111 374.000 C 248.994 374.000,248.683 374.259,248.420 374.576 M156.200 376.400 C 156.598 376.840,157.301 377.189,157.762 377.175 C 158.598 377.149,158.598 377.148,157.741 376.803 C 157.268 376.612,156.763 376.263,156.617 376.028 C 156.472 375.793,156.156 375.600,155.914 375.600 C 155.673 375.600,155.802 375.960,156.200 376.400 M243.400 376.422 C 242.023 377.073,241.940 377.180,242.800 377.187 C 243.350 377.191,244.340 376.837,245.000 376.400 C 246.506 375.403,245.525 375.416,243.400 376.422 M159.800 377.495 C 160.460 377.591,161.144 377.924,161.320 378.235 C 161.496 378.546,162.036 378.789,162.520 378.775 L 163.400 378.749 162.541 378.403 C 162.068 378.212,161.563 377.863,161.417 377.628 C 161.272 377.393,160.578 377.227,159.876 377.260 L 158.600 377.320 159.800 377.495 M238.406 378.023 C 237.116 378.742,237.086 378.800,238.006 378.797 C 238.553 378.796,239.540 378.437,240.200 378.000 C 241.844 376.912,240.366 376.930,238.406 378.023 M164.797 379.097 C 165.565 379.189,166.303 379.443,166.438 379.661 C 166.740 380.149,169.341 380.778,171.114 380.790 C 171.837 380.796,172.850 381.076,173.365 381.414 C 173.975 381.814,175.748 382.111,178.451 382.267 C 181.301 382.431,182.818 382.696,183.297 383.112 C 184.595 384.242,215.005 384.309,216.822 383.186 C 217.820 382.570,216.989 382.411,215.378 382.911 C 212.642 383.759,187.176 383.586,184.427 382.700 C 183.232 382.315,181.113 382.000,179.717 382.000 C 178.205 382.000,176.260 381.677,174.904 381.200 C 173.652 380.760,171.901 380.396,171.014 380.391 C 170.126 380.386,168.615 380.026,167.656 379.591 C 166.697 379.156,165.347 378.829,164.656 378.864 L 163.400 378.928 164.797 379.097 M233.389 379.352 C 232.955 379.655,232.240 379.995,231.800 380.106 C 231.161 380.267,231.211 380.317,232.051 380.354 C 232.629 380.379,233.318 380.140,233.581 379.822 C 233.845 379.505,234.722 379.175,235.530 379.090 L 237.000 378.934 235.589 378.867 C 234.813 378.830,233.823 379.048,233.389 379.352 M226.000 381.080 C 225.230 381.436,223.070 381.860,221.200 382.021 L 217.800 382.313 221.922 382.199 C 224.941 382.115,226.226 381.920,226.723 381.470 C 227.096 381.132,228.211 380.785,229.201 380.698 L 231.000 380.540 229.200 380.486 C 228.210 380.456,226.770 380.723,226.000 381.080 M43.884 417.850 C 43.310 418.423,43.625 419.148,44.500 419.272 C 45.222 419.375,45.399 419.656,45.397 420.689 C 45.394 421.812,45.468 421.903,45.970 421.401 C 46.817 420.554,46.097 417.843,44.984 417.683 C 44.534 417.619,44.039 417.694,43.884 417.850 M353.756 425.034 C 353.575 425.753,353.709 426.270,354.195 426.734 C 354.854 427.362,354.867 427.347,354.419 426.474 C 353.836 425.338,354.545 424.240,355.672 424.535 C 356.072 424.639,356.400 424.562,356.400 424.363 C 356.400 423.410,354.011 424.017,353.756 425.034 M45.200 424.800 C 45.200 425.020,45.653 425.200,46.208 425.200 C 47.096 425.200,47.188 425.330,46.985 426.300 L 46.754 427.400 47.344 426.401 C 47.760 425.696,47.811 425.255,47.518 424.901 C 47.024 424.306,45.200 424.226,45.200 424.800 M46.872 428.871 C 46.980 429.988,47.160 430.200,48.000 430.200 C 49.586 430.200,49.468 427.854,47.872 427.671 C 46.815 427.550,46.753 427.625,46.872 428.871 M352.244 428.229 C 352.111 428.575,352.189 429.205,352.416 429.629 C 352.973 430.671,353.127 430.599,352.898 429.400 C 352.744 428.595,352.868 428.400,353.530 428.400 C 353.982 428.400,354.464 428.220,354.600 428.000 C 354.743 427.768,354.352 427.600,353.666 427.600 C 352.962 427.600,352.388 427.854,352.244 428.229 M48.800 431.218 C 48.800 431.447,49.025 431.606,49.300 431.570 C 50.712 431.387,50.851 431.586,50.579 433.400 C 50.333 435.039,50.383 435.200,51.135 435.200 C 52.684 435.200,52.833 433.994,51.491 432.324 C 50.350 430.904,48.800 430.267,48.800 431.218 M346.900 435.444 C 343.278 439.144,342.411 440.252,342.454 441.121 C 342.507 442.157,342.516 442.162,342.691 441.233 C 343.016 439.509,345.009 437.895,346.428 438.206 C 347.458 438.432,347.690 438.341,347.874 437.638 C 348.005 437.138,348.418 436.800,348.898 436.800 C 349.613 436.800,349.674 436.622,349.445 435.190 C 349.242 433.924,349.324 433.527,349.824 433.335 C 350.175 433.201,350.618 432.678,350.810 432.174 C 351.030 431.596,351.573 431.195,352.279 431.089 C 353.309 430.934,353.319 430.917,352.400 430.883 C 351.630 430.855,350.365 431.905,346.900 435.444 M56.000 437.991 C 54.532 438.918,55.203 440.035,57.154 439.914 C 58.908 439.806,59.006 439.855,59.128 440.913 C 59.247 441.949,59.351 442.008,60.628 441.768 C 61.906 441.529,62.000 441.582,62.000 442.555 C 62.000 443.130,62.180 443.600,62.400 443.600 C 63.011 443.600,62.876 441.761,62.226 441.221 C 61.807 440.874,61.434 440.861,60.852 441.172 C 59.721 441.777,59.600 441.723,59.600 440.614 C 59.600 439.998,59.262 439.451,58.700 439.156 C 58.205 438.896,57.656 438.439,57.480 438.142 C 57.105 437.506,56.815 437.476,56.000 437.991 M339.067 441.067 C 338.920 441.213,338.821 441.888,338.847 442.567 L 338.895 443.800 339.158 442.600 C 339.356 441.701,339.640 441.407,340.291 441.430 C 340.769 441.446,341.069 441.311,340.957 441.130 C 340.712 440.734,339.441 440.692,339.067 441.067 M64.000 442.832 C 63.533 443.159,63.604 443.195,64.319 442.993 C 65.479 442.666,66.497 443.465,66.182 444.456 C 66.006 445.010,66.148 445.200,66.736 445.200 C 67.351 445.200,67.478 445.001,67.311 444.300 C 66.919 442.648,65.293 441.927,64.000 442.832 M334.850 442.761 C 334.062 443.260,333.913 445.200,334.662 445.200 C 335.071 445.200,335.176 444.954,335.001 444.403 C 334.634 443.247,336.494 442.417,337.730 443.187 C 338.523 443.681,338.552 443.670,338.051 443.064 C 337.463 442.352,335.751 442.190,334.850 442.761 M70.603 444.396 C 70.442 444.656,114.885 444.791,200.799 444.790 C 286.322 444.789,331.156 444.652,330.996 444.394 C 330.659 443.849,70.940 443.851,70.603 444.396 " stroke="none" fill="#a39ce5" fill-rule="evenodd"></path><path id="path3" d="M66.191 58.881 C 65.851 59.764,66.346 60.614,66.887 60.073 C 67.148 59.812,67.142 59.426,66.868 58.939 C 66.486 58.258,66.433 58.253,66.191 58.881 M333.672 59.300 C 333.887 60.816,336.402 60.839,336.394 59.325 C 336.389 58.452,336.301 58.334,336.000 58.800 C 335.742 59.200,335.610 59.233,335.606 58.900 C 335.603 58.625,335.137 58.400,334.572 58.400 C 333.735 58.400,333.568 58.567,333.672 59.300 M341.268 62.468 C 341.356 63.089,341.667 63.400,342.200 63.400 C 343.391 63.400,343.272 61.839,342.068 61.668 C 341.292 61.558,341.158 61.692,341.268 62.468 M346.000 65.831 C 346.000 66.648,348.152 68.800,348.969 68.800 C 349.375 68.800,349.600 68.444,349.600 67.800 C 349.600 67.078,349.385 66.800,348.827 66.800 C 348.402 66.800,347.940 66.440,347.800 66.000 C 347.499 65.053,346.000 64.912,346.000 65.831 M352.800 74.172 C 352.800 75.009,352.991 75.200,353.828 75.200 C 355.196 75.200,355.081 73.468,353.700 73.272 C 352.967 73.168,352.800 73.335,352.800 74.172 M354.554 76.977 C 354.162 77.996,354.584 78.997,355.458 79.122 C 356.176 79.225,356.300 79.052,356.258 78.009 C 356.213 76.915,356.150 76.853,355.704 77.464 C 355.224 78.120,354.982 77.784,355.153 76.700 C 355.236 76.170,354.783 76.380,354.554 76.977 M356.243 83.833 C 355.693 85.265,356.300 86.567,357.332 86.171 C 358.337 85.785,358.260 83.200,357.243 83.200 C 356.826 83.200,356.376 83.485,356.243 83.833 M107.247 121.344 C 106.914 121.744,106.795 151.165,106.794 233.231 L 106.792 344.575 110.096 347.930 C 113.162 351.043,119.692 356.312,124.544 359.588 C 125.675 360.351,126.744 361.206,126.920 361.488 C 127.096 361.769,127.456 362.005,127.720 362.011 C 127.984 362.018,129.276 362.738,130.591 363.611 C 131.907 364.485,133.202 365.200,133.471 365.200 C 133.739 365.200,134.444 365.650,135.038 366.200 C 135.631 366.750,136.423 367.200,136.796 367.200 C 137.170 367.200,137.802 367.560,138.200 368.000 C 138.598 368.440,139.183 368.800,139.499 368.800 C 139.815 368.800,140.531 369.160,141.091 369.600 C 141.650 370.040,142.419 370.400,142.800 370.400 C 143.181 370.400,143.950 370.760,144.509 371.200 C 145.069 371.640,146.009 372.000,146.600 372.000 C 147.191 372.000,148.131 372.360,148.691 372.800 C 149.250 373.240,149.999 373.601,150.354 373.603 C 150.709 373.604,151.540 373.963,152.200 374.400 C 152.860 374.837,153.961 375.196,154.646 375.197 C 155.331 375.199,156.350 375.560,156.909 376.000 C 157.469 376.440,158.528 376.801,159.263 376.803 C 159.998 376.804,161.140 377.163,161.800 377.600 C 162.460 378.037,163.464 378.396,164.030 378.397 C 164.597 378.399,166.349 378.850,167.923 379.400 C 169.497 379.950,171.396 380.400,172.142 380.400 C 172.889 380.400,174.287 380.680,175.250 381.022 C 176.212 381.364,178.710 381.810,180.800 382.013 C 182.890 382.216,186.310 382.655,188.400 382.988 C 194.231 383.918,207.439 383.819,213.400 382.800 C 215.974 382.360,219.056 382.000,220.250 382.000 C 221.443 382.000,223.408 381.653,224.617 381.228 C 225.825 380.803,227.845 380.332,229.107 380.180 C 230.368 380.028,232.155 379.565,233.078 379.152 C 234.001 378.738,235.315 378.400,235.998 378.400 C 236.681 378.400,237.732 378.145,238.334 377.834 C 238.935 377.523,240.141 377.137,241.014 376.976 C 241.886 376.815,243.227 376.349,243.994 375.941 C 244.761 375.534,245.772 375.200,246.240 375.200 C 246.709 375.200,247.550 374.840,248.109 374.400 C 248.669 373.960,249.512 373.600,249.984 373.600 C 250.456 373.600,251.507 373.254,252.321 372.832 C 253.134 372.410,256.453 370.776,259.695 369.201 C 262.938 367.627,265.694 366.172,265.819 365.969 C 265.945 365.766,266.364 365.600,266.751 365.600 C 267.139 365.600,267.847 365.150,268.325 364.600 C 268.803 364.050,269.362 363.600,269.566 363.600 C 269.970 363.600,274.145 360.934,277.522 358.518 C 283.236 354.430,286.942 351.355,291.681 346.769 L 294.400 344.138 294.400 233.098 C 294.400 132.685,294.340 121.997,293.771 121.429 C 292.894 120.552,251.976 120.465,251.251 121.338 C 250.926 121.731,250.777 149.132,250.702 222.484 L 250.600 323.092 249.211 324.390 C 248.447 325.104,247.457 325.857,247.011 326.064 C 246.565 326.272,245.480 326.878,244.600 327.411 C 243.720 327.945,242.550 328.565,242.000 328.790 C 241.450 329.015,240.730 329.381,240.400 329.603 C 240.070 329.824,239.350 330.204,238.800 330.446 C 238.250 330.688,237.530 331.048,237.200 331.246 C 236.870 331.444,236.150 331.799,235.600 332.036 C 235.050 332.273,233.934 332.811,233.121 333.233 C 232.307 333.655,231.227 334.001,230.721 334.003 C 230.214 334.004,229.260 334.363,228.600 334.800 C 227.940 335.237,226.857 335.596,226.194 335.597 C 225.531 335.599,224.361 335.933,223.594 336.339 C 222.827 336.746,221.192 337.194,219.961 337.336 C 218.729 337.477,217.019 337.838,216.161 338.137 C 211.720 339.685,188.680 339.685,184.239 338.137 C 183.381 337.838,181.671 337.477,180.439 337.336 C 179.208 337.194,177.573 336.746,176.806 336.339 C 176.039 335.933,174.869 335.599,174.206 335.597 C 173.543 335.596,172.460 335.237,171.800 334.800 C 171.140 334.363,170.088 334.004,169.463 334.003 C 168.838 334.001,167.869 333.640,167.309 333.200 C 166.750 332.760,166.056 332.400,165.767 332.400 C 165.479 332.400,164.448 331.978,163.477 331.461 C 162.505 330.945,161.371 330.405,160.955 330.262 C 160.540 330.119,159.480 329.564,158.600 329.029 C 157.720 328.493,156.415 327.782,155.700 327.448 C 154.985 327.114,154.400 326.652,154.400 326.420 C 154.400 326.189,154.198 326.000,153.952 326.000 C 153.705 326.000,152.722 325.505,151.766 324.900 L 150.029 323.800 150.015 223.326 C 150.005 159.048,149.859 122.482,149.610 121.826 L 149.220 120.800 128.459 120.800 C 111.448 120.800,107.616 120.898,107.247 121.344 M149.361 122.242 C 149.497 122.596,149.602 168.075,149.596 223.307 L 149.585 323.729 150.892 324.858 C 151.612 325.479,152.605 326.100,153.100 326.237 C 153.595 326.374,154.000 326.656,154.000 326.864 C 154.000 327.071,154.585 327.517,155.300 327.855 C 157.069 328.691,159.084 329.810,159.695 330.295 C 159.973 330.515,160.875 330.913,161.700 331.179 C 162.525 331.445,163.200 331.814,163.200 331.999 C 163.200 332.185,163.785 332.464,164.500 332.620 C 165.215 332.776,166.229 333.241,166.754 333.652 C 167.296 334.077,168.349 334.400,169.192 334.400 C 170.168 334.400,170.924 334.674,171.400 335.200 C 171.905 335.758,172.632 336.000,173.801 336.000 C 174.903 336.000,175.793 336.274,176.400 336.800 C 176.978 337.301,177.897 337.600,178.860 337.600 C 179.705 337.600,181.433 337.944,182.698 338.364 C 184.138 338.842,186.649 339.205,189.400 339.333 C 191.820 339.446,194.307 339.732,194.926 339.969 C 196.389 340.529,204.018 340.527,205.474 339.967 C 206.093 339.728,208.978 339.396,211.885 339.228 C 215.012 339.047,217.410 338.724,217.758 338.435 C 218.080 338.167,219.392 337.846,220.672 337.721 C 221.953 337.596,223.275 337.257,223.610 336.966 C 223.946 336.676,225.026 336.312,226.010 336.158 C 226.995 336.004,228.427 335.546,229.194 335.139 C 229.961 334.733,230.972 334.400,231.440 334.400 C 231.909 334.400,232.750 334.040,233.309 333.600 C 233.869 333.160,234.679 332.800,235.109 332.800 C 235.540 332.800,236.350 332.440,236.909 332.000 C 237.469 331.560,238.189 331.200,238.509 331.200 C 238.830 331.200,239.550 330.840,240.109 330.400 C 240.669 329.960,241.358 329.600,241.642 329.600 C 241.925 329.600,242.797 329.191,243.578 328.690 C 245.956 327.168,246.564 326.814,247.476 326.418 C 247.957 326.209,248.549 325.670,248.790 325.219 C 249.031 324.769,249.487 324.400,249.804 324.400 C 251.680 324.400,251.600 328.937,251.600 222.300 C 251.600 145.258,251.709 122.451,252.080 122.080 C 252.788 121.372,291.963 121.391,292.927 122.100 C 293.565 122.569,293.600 129.521,293.503 233.521 L 293.400 344.442 290.800 346.842 C 289.370 348.162,287.164 350.223,285.897 351.421 C 284.630 352.619,283.493 353.600,283.370 353.600 C 283.247 353.600,282.484 354.095,281.674 354.700 C 280.864 355.305,279.959 355.980,279.663 356.200 C 279.367 356.420,278.716 357.005,278.216 357.500 C 277.717 357.995,277.159 358.400,276.976 358.400 C 276.550 358.400,273.444 360.500,273.263 360.910 C 273.188 361.080,272.558 361.490,271.863 361.821 C 269.792 362.805,268.802 363.447,267.963 364.348 C 267.526 364.816,266.844 365.200,266.446 365.200 C 266.049 365.200,265.398 365.560,265.000 366.000 C 264.602 366.440,263.882 366.800,263.400 366.800 C 262.918 366.800,262.198 367.160,261.800 367.600 C 261.402 368.040,260.768 368.400,260.392 368.400 C 260.016 368.400,259.250 368.760,258.691 369.200 C 258.131 369.640,257.325 370.000,256.899 370.000 C 256.473 370.000,255.798 370.360,255.400 370.800 C 255.002 371.240,254.192 371.600,253.600 371.600 C 253.008 371.600,252.198 371.960,251.800 372.400 C 251.362 372.884,250.568 373.200,249.792 373.200 C 249.086 373.200,248.079 373.534,247.554 373.942 C 247.029 374.350,245.899 374.813,245.042 374.971 C 244.184 375.129,243.104 375.498,242.642 375.791 C 242.179 376.084,241.052 376.443,240.137 376.590 C 239.222 376.738,238.142 377.109,237.737 377.416 C 237.332 377.723,236.370 377.988,235.600 378.005 C 234.830 378.021,233.480 378.312,232.600 378.650 C 231.720 378.987,229.626 379.480,227.947 379.744 C 226.268 380.008,224.621 380.451,224.286 380.728 C 223.915 381.037,221.390 381.386,217.793 381.627 C 214.556 381.844,211.523 382.242,211.054 382.511 C 209.571 383.360,192.978 383.425,190.116 382.592 C 188.842 382.221,185.523 381.793,182.740 381.641 C 179.772 381.479,177.439 381.164,177.097 380.880 C 176.776 380.614,175.003 380.203,173.157 379.966 C 171.311 379.730,169.341 379.292,168.779 378.992 C 168.218 378.693,166.780 378.319,165.583 378.160 C 164.387 378.001,162.866 377.541,162.204 377.137 C 161.542 376.733,160.398 376.402,159.663 376.401 C 158.928 376.401,157.869 376.040,157.309 375.600 C 156.738 375.150,155.686 374.800,154.909 374.800 C 154.132 374.800,153.081 374.450,152.509 374.000 C 151.950 373.560,151.181 373.200,150.800 373.200 C 150.419 373.200,149.650 372.840,149.091 372.400 C 148.531 371.960,147.515 371.600,146.833 371.600 C 146.087 371.600,145.319 371.281,144.907 370.800 C 144.524 370.352,143.727 370.000,143.099 370.000 C 142.472 370.000,141.874 369.736,141.746 369.404 C 141.621 369.077,140.835 368.625,140.000 368.400 C 139.165 368.175,138.386 367.740,138.268 367.433 C 138.150 367.127,137.490 366.751,136.800 366.600 C 136.110 366.449,135.454 366.084,135.341 365.790 C 135.228 365.496,134.655 365.061,134.068 364.823 C 133.481 364.585,132.280 363.949,131.400 363.409 C 130.520 362.870,129.231 362.156,128.537 361.824 C 127.842 361.492,127.212 361.077,127.137 360.902 C 127.015 360.620,123.423 358.065,121.651 357.000 C 121.285 356.780,120.611 356.240,120.154 355.800 C 119.696 355.360,118.833 354.651,118.236 354.225 C 117.638 353.799,116.773 353.124,116.313 352.725 C 115.854 352.326,115.335 352.000,115.162 352.000 C 114.988 352.000,113.125 350.305,111.023 348.233 L 107.200 344.465 107.200 233.665 C 107.200 172.725,107.309 122.581,107.443 122.233 C 107.817 121.259,148.987 121.268,149.361 122.242 M356.252 418.500 C 355.668 420.680,356.361 422.958,357.196 421.606 C 357.435 421.220,357.551 421.230,357.720 421.655 C 357.839 421.955,357.951 421.274,357.968 420.143 C 357.992 418.615,357.837 418.023,357.367 417.843 C 356.496 417.508,356.522 417.493,356.252 418.500 M43.600 420.785 C 43.600 421.523,44.586 422.355,44.979 421.949 C 45.589 421.320,45.299 420.186,44.500 420.072 C 43.812 419.974,43.600 420.142,43.600 420.785 M354.611 425.181 C 354.168 425.899,354.814 427.256,355.534 427.117 C 356.426 426.945,356.429 425.055,355.537 424.883 C 355.173 424.813,354.756 424.947,354.611 425.181 M353.007 428.789 C 352.635 429.390,353.235 430.324,353.928 430.224 C 354.938 430.079,355.023 428.587,354.024 428.512 C 353.580 428.478,353.122 428.603,353.007 428.789 M48.622 431.964 C 48.231 432.598,48.856 433.600,49.643 433.600 C 50.184 433.600,50.400 433.314,50.400 432.600 C 50.400 431.592,49.133 431.138,48.622 431.964 M351.067 431.867 C 350.920 432.013,350.800 432.463,350.800 432.867 C 350.800 433.270,350.530 433.600,350.200 433.600 C 349.867 433.600,349.600 433.956,349.600 434.400 C 349.600 434.947,349.867 435.200,350.443 435.200 C 351.040 435.200,351.216 435.019,351.047 434.579 C 350.911 434.223,350.978 434.063,351.205 434.203 C 351.422 434.337,351.600 434.269,351.600 434.051 C 351.600 433.832,351.948 433.543,352.374 433.408 C 353.447 433.068,353.292 431.600,352.182 431.600 C 351.715 431.600,351.213 431.720,351.067 431.867 M344.684 439.200 C 344.559 439.679,344.138 440.000,343.637 440.000 C 343.075 440.000,342.800 440.255,342.800 440.776 C 342.800 441.767,343.531 442.230,344.135 441.621 C 344.489 441.264,344.449 441.210,343.967 441.394 C 343.570 441.544,343.333 441.419,343.333 441.058 C 343.333 440.698,343.911 440.389,344.867 440.236 C 346.048 440.047,346.400 439.808,346.400 439.195 C 346.400 438.132,344.962 438.135,344.684 439.200 M57.477 439.904 C 56.315 440.167,56.771 441.773,58.049 441.922 C 58.980 442.030,59.075 441.929,58.901 441.016 C 58.675 439.834,58.476 439.678,57.477 439.904 M339.600 442.600 C 339.600 443.466,339.762 443.633,340.500 443.528 C 341.091 443.444,341.400 443.125,341.400 442.600 C 341.400 442.075,341.091 441.756,340.500 441.672 C 339.762 441.567,339.600 441.734,339.600 442.600 M60.748 442.537 C 60.993 442.832,61.065 443.202,60.909 443.358 C 60.752 443.514,60.923 443.528,61.287 443.388 C 62.074 443.086,61.778 442.000,60.908 442.000 C 60.446 442.000,60.408 442.128,60.748 442.537 M63.502 443.700 C 63.177 444.584,63.641 445.200,64.633 445.200 C 65.398 445.200,65.600 444.991,65.600 444.200 C 65.600 443.112,63.870 442.700,63.502 443.700 M335.600 444.200 C 335.600 445.260,336.784 445.578,337.958 444.834 C 338.884 444.248,338.149 443.200,336.813 443.200 C 335.786 443.200,335.600 443.353,335.600 444.200 M70.300 445.023 C 70.135 445.194,70.000 445.663,70.000 446.067 C 70.000 446.891,74.511 447.192,75.000 446.400 C 75.136 446.180,76.036 446.000,77.000 446.000 C 77.964 446.000,78.864 445.820,79.000 445.600 C 79.150 445.357,78.570 445.199,77.524 445.197 C 76.576 445.196,74.630 445.086,73.200 444.954 C 71.770 444.821,70.465 444.853,70.300 445.023 M203.600 445.190 C 135.510 445.306,80.070 445.536,80.400 445.701 C 80.730 445.867,136.170 446.073,203.600 446.160 C 271.030 446.246,327.430 446.442,328.932 446.594 C 331.633 446.868,331.663 446.860,331.532 445.936 C 331.414 445.099,331.189 444.999,329.400 444.990 C 328.300 444.985,271.690 445.075,203.600 445.190 " stroke="none" fill="#bcb4f4" fill-rule="evenodd"></path><path id="path4" d="M65.600 59.357 C 65.600 59.884,65.853 60.411,66.161 60.530 C 66.994 60.849,68.176 59.835,67.878 59.058 C 67.541 58.181,66.784 58.214,66.905 59.100 C 66.957 59.485,66.820 59.838,66.600 59.884 C 66.380 59.930,66.214 59.615,66.232 59.184 C 66.249 58.753,66.114 58.400,65.932 58.400 C 65.749 58.400,65.600 58.831,65.600 59.357 M333.240 59.257 C 333.200 60.325,333.845 60.837,335.133 60.760 C 335.517 60.737,335.382 60.604,334.815 60.446 C 334.240 60.285,333.715 59.760,333.554 59.185 L 333.280 58.200 333.240 59.257 M337.911 61.045 C 338.027 61.656,338.369 62.000,338.859 62.000 C 339.814 62.000,340.280 60.907,339.594 60.273 C 339.193 59.902,339.152 59.921,339.403 60.362 C 339.640 60.777,339.577 60.832,339.162 60.573 C 338.119 59.922,337.725 60.071,337.911 61.045 M55.778 64.435 C 55.631 64.674,55.694 65.054,55.920 65.280 C 56.425 65.785,57.200 65.358,57.200 64.576 C 57.200 63.903,56.171 63.800,55.778 64.435 M54.453 66.136 C 54.081 66.584,54.108 66.756,54.577 66.936 C 55.301 67.213,55.842 66.482,55.308 65.948 C 55.065 65.705,54.754 65.774,54.453 66.136 M347.297 68.000 C 347.633 68.565,348.307 69.032,348.846 69.074 C 349.595 69.132,349.628 69.103,349.000 68.938 C 348.560 68.823,347.863 68.339,347.451 67.864 L 346.702 67.000 347.297 68.000 M51.193 69.204 C 50.726 69.493,50.708 69.668,51.103 70.063 C 51.700 70.660,52.515 70.033,52.073 69.318 C 51.883 69.011,51.571 68.971,51.193 69.204 M352.534 74.400 C 352.587 75.196,352.825 75.410,353.705 75.449 C 354.667 75.491,354.683 75.475,353.830 75.325 C 353.225 75.218,352.776 74.816,352.659 74.276 C 352.501 73.546,352.480 73.566,352.534 74.400 M46.254 77.802 C 46.115 78.165,46.256 78.400,46.613 78.400 C 47.260 78.400,47.407 77.775,46.842 77.426 C 46.645 77.304,46.381 77.474,46.254 77.802 M354.031 78.000 C 353.994 79.178,355.697 80.414,356.211 79.583 C 356.341 79.372,356.071 79.200,355.611 79.200 C 355.117 79.200,354.626 78.831,354.412 78.300 C 354.210 77.797,354.042 77.665,354.031 78.000 M43.731 83.075 C 43.794 83.900,44.028 84.200,44.609 84.200 C 45.793 84.200,45.714 82.245,44.522 82.075 C 43.781 81.970,43.658 82.125,43.731 83.075 M356.006 85.867 C 355.993 86.864,356.518 87.600,357.243 87.600 C 357.746 87.600,358.000 87.317,358.000 86.757 C 358.000 86.134,357.826 85.981,357.332 86.171 C 356.964 86.312,356.518 86.197,356.338 85.914 C 356.115 85.562,356.010 85.548,356.006 85.867 M107.149 121.100 C 106.661 121.723,106.672 121.744,107.250 121.293 C 107.759 120.895,112.383 120.809,128.711 120.893 C 140.158 120.952,149.440 120.865,149.338 120.700 C 148.886 119.969,107.730 120.359,107.149 121.100 M251.029 121.029 C 250.460 121.597,250.409 131.240,250.499 222.129 L 250.598 322.600 250.700 222.240 C 250.774 148.862,250.922 121.735,251.250 121.340 C 251.976 120.465,292.893 120.550,293.771 121.429 C 294.117 121.774,294.400 121.900,294.400 121.709 C 294.400 120.461,293.389 120.400,272.549 120.400 C 254.090 120.400,251.584 120.473,251.029 121.029 M294.597 232.800 C 294.597 293.630,294.643 318.515,294.700 288.100 C 294.757 257.685,294.757 207.915,294.700 177.500 C 294.643 147.085,294.597 171.970,294.597 232.800 M106.597 232.200 C 106.597 292.040,106.643 316.460,106.700 286.468 C 106.757 256.475,106.757 207.515,106.700 177.668 C 106.643 147.820,106.597 172.360,106.597 232.200 M215.000 338.186 C 213.455 338.893,214.174 338.903,216.000 338.200 C 216.770 337.903,217.130 337.655,216.800 337.648 C 216.470 337.642,215.660 337.883,215.000 338.186 M192.900 339.076 C 193.285 339.176,193.915 339.176,194.300 339.076 C 194.685 338.975,194.370 338.893,193.600 338.893 C 192.830 338.893,192.515 338.975,192.900 339.076 M206.100 339.076 C 206.485 339.176,207.115 339.176,207.500 339.076 C 207.885 338.975,207.570 338.893,206.800 338.893 C 206.030 338.893,205.715 338.975,206.100 339.076 M198.512 339.495 C 199.564 339.577,201.184 339.576,202.112 339.492 C 203.040 339.408,202.180 339.341,200.200 339.342 C 198.220 339.343,197.460 339.412,198.512 339.495 M291.815 346.788 L 289.431 349.400 291.997 346.915 C 293.408 345.548,294.481 344.372,294.381 344.302 C 294.282 344.233,293.127 345.351,291.815 346.788 M287.600 350.449 C 286.206 351.671,286.205 351.672,287.488 350.819 C 288.196 350.348,288.882 349.791,289.012 349.581 C 289.397 348.957,289.077 349.154,287.600 350.449 M115.167 352.945 C 115.700 353.601,117.200 354.593,117.200 354.289 C 117.200 354.213,116.615 353.722,115.900 353.199 C 115.096 352.610,114.816 352.513,115.167 352.945 M127.633 362.121 C 127.725 362.188,128.340 362.558,129.000 362.945 L 130.200 363.647 129.256 362.824 C 128.736 362.371,128.121 362.000,127.889 362.000 C 127.657 362.000,127.542 362.054,127.633 362.121 M259.000 369.627 C 258.340 370.050,258.005 370.397,258.256 370.398 C 258.506 370.399,259.136 370.046,259.656 369.613 C 260.845 368.623,260.559 368.629,259.000 369.627 M248.056 374.413 C 246.816 375.446,247.375 375.435,248.691 374.400 C 249.250 373.960,249.549 373.606,249.354 373.613 C 249.159 373.621,248.575 373.981,248.056 374.413 M154.100 375.476 C 154.485 375.576,155.115 375.576,155.500 375.476 C 155.885 375.375,155.570 375.293,154.800 375.293 C 154.030 375.293,153.715 375.375,154.100 375.476 M158.900 377.076 C 159.285 377.176,159.915 377.176,160.300 377.076 C 160.685 376.975,160.370 376.893,159.600 376.893 C 158.830 376.893,158.515 376.975,158.900 377.076 M163.700 378.676 C 164.085 378.776,164.715 378.776,165.100 378.676 C 165.485 378.575,165.170 378.493,164.400 378.493 C 163.630 378.493,163.315 378.575,163.700 378.676 M235.105 378.683 C 235.602 378.779,236.322 378.775,236.705 378.675 C 237.087 378.575,236.680 378.496,235.800 378.501 C 234.920 378.505,234.607 378.587,235.105 378.683 M232.400 379.433 C 231.842 379.743,231.665 379.985,232.000 379.981 C 232.330 379.978,232.949 379.710,233.376 379.387 C 234.339 378.659,233.745 378.687,232.400 379.433 M229.300 380.276 C 229.685 380.376,230.315 380.376,230.700 380.276 C 231.085 380.175,230.770 380.093,230.000 380.093 C 229.230 380.093,228.915 380.175,229.300 380.276 M185.000 382.790 C 185.764 383.128,188.314 383.357,187.967 383.056 C 187.875 382.976,186.990 382.804,186.000 382.673 C 184.798 382.514,184.466 382.553,185.000 382.790 M213.600 382.800 C 212.243 383.086,212.237 383.095,213.400 383.107 C 214.060 383.115,215.050 382.976,215.600 382.800 C 216.912 382.380,215.596 382.380,213.600 382.800 M356.267 416.667 C 356.120 416.813,356.021 417.398,356.046 417.967 C 356.078 418.674,356.152 418.774,356.279 418.283 C 356.408 417.786,356.700 417.641,357.233 417.810 C 357.820 417.997,358.000 417.860,358.000 417.227 C 358.000 416.421,356.876 416.058,356.267 416.667 M43.600 419.526 C 43.600 419.735,44.057 419.994,44.616 420.101 C 45.257 420.223,45.577 420.130,45.485 419.848 C 45.302 419.292,43.600 419.002,43.600 419.526 M354.480 424.880 C 354.216 425.144,354.000 425.538,354.000 425.756 C 354.000 425.975,354.244 425.819,354.542 425.411 C 354.883 424.945,355.336 424.767,355.763 424.930 C 356.165 425.085,356.342 425.029,356.197 424.795 C 355.865 424.258,355.062 424.298,354.480 424.880 M45.400 426.100 C 45.463 426.959,46.800 427.687,46.800 426.862 C 46.800 426.644,46.909 426.181,47.043 425.833 C 47.223 425.362,47.035 425.200,46.310 425.200 C 45.545 425.200,45.348 425.395,45.400 426.100 M351.045 431.528 C 350.933 431.708,351.373 431.777,352.021 431.682 C 352.670 431.587,353.200 431.440,353.200 431.355 C 353.200 431.050,351.243 431.207,351.045 431.528 M349.821 433.335 C 349.419 433.629,349.190 434.124,349.313 434.435 C 349.478 434.851,349.545 434.816,349.568 434.300 C 349.586 433.915,349.870 433.600,350.200 433.600 C 350.530 433.600,350.800 433.420,350.800 433.200 C 350.800 432.680,350.698 432.694,349.821 433.335 M344.130 439.007 C 343.454 439.780,343.395 440.000,343.868 440.000 C 344.202 440.000,344.566 439.650,344.678 439.222 C 344.790 438.795,345.268 438.369,345.741 438.277 C 346.527 438.123,346.532 438.105,345.800 438.062 C 345.360 438.036,344.609 438.461,344.130 439.007 M339.354 441.777 C 339.232 442.094,339.217 442.679,339.320 443.077 C 339.446 443.563,339.522 443.449,339.554 442.729 C 339.582 442.072,339.871 441.588,340.300 441.476 C 340.956 441.304,340.955 441.290,340.287 441.246 C 339.896 441.221,339.475 441.459,339.354 441.777 M60.138 442.217 C 59.849 442.969,60.155 443.313,61.261 443.482 C 62.063 443.605,62.058 443.574,61.151 442.819 C 60.394 442.188,60.336 442.024,60.867 442.013 C 61.233 442.006,61.624 442.225,61.735 442.500 C 61.856 442.799,61.950 442.718,61.968 442.300 C 62.008 441.415,60.472 441.346,60.138 442.217 M64.900 443.076 C 65.342 443.191,65.604 443.653,65.612 444.329 C 65.623 445.270,65.675 445.312,66.044 444.679 C 66.544 443.818,65.865 442.774,64.851 442.846 C 64.302 442.886,64.309 442.921,64.900 443.076 M335.002 443.597 C 334.867 443.815,334.941 444.310,335.166 444.697 C 335.517 445.300,335.577 445.244,335.588 444.300 C 335.601 443.150,335.416 442.928,335.002 443.597 M71.505 444.683 C 72.002 444.779,72.722 444.775,73.105 444.675 C 73.487 444.575,73.080 444.496,72.200 444.501 C 71.320 444.505,71.007 444.587,71.505 444.683 M328.300 444.682 C 328.795 444.778,329.605 444.778,330.100 444.682 C 330.595 444.587,330.190 444.509,329.200 444.509 C 328.210 444.509,327.805 444.587,328.300 444.682 M76.512 445.097 C 79.488 445.251,79.893 446.000,77.000 446.000 C 76.036 446.000,75.136 446.180,75.000 446.400 C 74.835 446.666,116.894 446.798,200.876 446.794 C 282.451 446.790,326.788 446.651,326.400 446.400 C 326.016 446.152,281.634 446.010,203.124 446.006 C 121.908 446.002,80.364 445.865,80.200 445.601 C 80.036 445.335,121.454 445.167,203.677 445.100 L 327.400 444.999 200.600 444.978 C 130.860 444.966,75.020 445.020,76.512 445.097 " stroke="none" fill="#b4acf0" fill-rule="evenodd"></path></g></svg>
